<svg width="32" height="32" viewBox="0 0 32 32" fill="none" xmlns="http://www.w3.org/2000/svg">
<path d="M28.7703 32H3.22972C1.45347 32 0 30.5993 0 28.8876V3.11243C0 1.40069 1.45347 0 3.22972 0H28.7703C30.5465 0 32 1.40069 32 3.11243V28.8879C32 30.5996 30.5465 32 28.7703 32Z" fill="#89CFF0"/>
<path d="M14.1613 11.8863C15.1526 12.8422 16.4569 13.3549 17.8335 13.3295L18.9605 13.3091L18.9082 10.447L16.6543 10.4879L16.6614 10.87C16.3179 10.7324 16.0007 10.5282 15.7263 10.2635C15.1685 9.72553 14.8536 9.00311 14.8393 8.22808C14.8253 7.45338 15.1136 6.71927 15.6513 6.16146C15.9159 5.8871 16.2254 5.67119 16.5637 5.52118L16.5705 5.90366L18.8245 5.86275L18.7722 3L17.6452 3.02046C16.2685 3.04546 14.9838 3.60521 14.0282 4.5968C13.0723 5.58807 12.56 6.89233 12.585 8.26932C12.5902 8.55179 12.6178 8.8307 12.6671 9.10343C12.858 10.1593 13.3733 11.1265 14.1613 11.8863Z" fill="white"/>
<path d="M12.4152 19.0515L11.834 18.0859L9.38136 19.5622L10.5437 21.4938L10.871 21.2967C10.9236 21.6629 10.9054 22.0399 10.8135 22.4097C10.6265 23.1617 10.158 23.7958 9.49435 24.1955C8.46607 24.8143 7.20402 24.7192 6.28939 24.0546L6.61569 23.8581L5.45332 21.9266L3 23.4032L3.58151 24.3689C5.04746 26.8043 8.22159 27.593 10.6571 26.1267C13.0925 24.6608 13.8812 21.487 12.4152 19.0515Z" fill="white"/>
<path d="M29.545 21.9539C29.1644 20.6305 28.291 19.5343 27.0861 18.8677C25.8812 18.2012 24.489 18.0437 23.1655 18.4242C21.8421 18.8048 20.7463 19.6778 20.0797 20.8827L19.5339 21.8691L22.0389 23.2549L23.1301 21.2824L22.7957 21.0974C23.0866 20.8685 23.422 20.6961 23.7886 20.5909C24.5334 20.3766 25.3169 20.4652 25.9948 20.8402C26.6731 21.2155 27.1644 21.8321 27.3787 22.577C27.4839 22.9435 27.516 23.3192 27.4767 23.6871L27.142 23.502L26.0507 25.4744L28.556 26.8605L29.1018 25.8741C29.768 24.6696 29.9258 23.2773 29.545 21.9539Z" fill="white"/>
<path d="M7.89104 24.0445C8.34235 24.0659 8.79951 23.9559 9.20374 23.712C9.50018 23.5334 9.74856 23.2974 9.93558 23.0185C9.1177 21.9597 8.53521 20.6957 8.28098 19.2901C7.61863 15.6264 9.38394 12.0759 12.4256 10.2976C12.286 9.94666 12.1808 9.58074 12.1126 9.20313C12.0577 8.9002 12.0275 8.58916 12.0217 8.27908C12.0201 8.17161 12.0207 8.06446 12.0249 7.95764C7.7433 10.0356 5.17537 14.7828 6.06273 19.6908C6.3556 21.3113 6.99523 22.7834 7.89104 24.0445Z" fill="white"/>
<path d="M15.7706 6.91474C15.5229 7.29982 15.3943 7.75016 15.4027 8.21835C15.405 8.34563 15.418 8.47323 15.4404 8.59759C15.4784 8.80766 15.5446 9.00929 15.6365 9.19825C20.1753 8.59077 24.4478 11.6672 25.2709 16.2192C25.3618 16.7219 25.4069 17.2222 25.4092 17.716C26.0849 17.8138 26.744 18.0349 27.3593 18.3748C27.4534 18.4271 27.5456 18.4813 27.6362 18.5385C27.7005 17.6482 27.6551 16.7361 27.4891 15.8183C26.4774 10.2217 21.3318 6.39362 15.7706 6.91474Z" fill="white"/>
<path d="M25.7215 21.3334C25.4186 21.1658 25.089 21.0691 24.7539 21.046C23.6659 23.6705 21.3087 25.7075 18.3118 26.2494C16.2339 26.6251 14.1919 26.2192 12.4896 25.2426C12.0694 25.7803 11.5509 26.2462 10.948 26.6095C10.8571 26.6644 10.7655 26.7157 10.673 26.7647C12.9474 28.3053 15.802 28.9943 18.7125 28.468C22.3412 27.8121 25.2263 25.4182 26.6647 22.2996C26.4546 21.8944 26.1303 21.5593 25.7215 21.3334Z" fill="white"/>
<path d="M17.225 15.2923C16.9471 15.1689 16.6396 15.1004 16.3159 15.1004C16.0535 15.1004 15.8019 15.1455 15.5681 15.2283L16.7162 16.3764L17.225 16.8852V15.2923Z" fill="white"/>
<path d="M14.2659 16.4336C14.1425 16.7115 14.074 17.019 14.074 17.3427C14.074 17.605 14.1191 17.8567 14.2019 18.0904L15.35 16.9423L15.8588 16.4336H14.2659Z" fill="white"/>
<path d="M15.509 15.2501C14.974 15.4566 14.5379 15.8621 14.2921 16.3764H16.6354L15.509 15.2501Z" fill="white"/>
<path d="M14.2238 18.1495C14.4303 18.6846 14.8358 19.1206 15.3501 19.3664V17.0232L14.2238 18.1495Z" fill="white"/>
<path d="M15.9159 18.3089L15.4071 17.8001V19.393C15.685 19.5164 15.9925 19.5849 16.3162 19.5849C16.5786 19.5849 16.8302 19.5398 17.064 19.457L15.9159 18.3089Z" fill="white"/>
<path d="M15.9967 18.3089L17.123 19.4353C17.6581 19.2288 18.0942 18.8232 18.34 18.3089H15.9967Z" fill="white"/>
<path d="M18.3662 18.2518C18.4896 17.9738 18.5581 17.6664 18.5581 17.3427C18.5581 17.0803 18.513 16.8287 18.4302 16.5949L17.2821 17.743L16.7733 18.2518H18.3662Z" fill="white"/>
<path d="M18.4084 16.5358C18.2019 16.0007 17.7964 15.5647 17.2821 15.3189V17.6622L18.4084 16.5358Z" fill="white"/>
<path d="M18.34 15.115C14.2577 11.3373 12.9375 16.8696 10.0391 17.0991C12.996 17.4725 14.3061 12.8678 18.34 15.115Z" fill="white"/>
<path d="M14.4081 19.6677C18.4903 23.4454 19.8105 17.9131 22.709 17.6836C19.7521 17.3105 18.442 21.9152 14.4081 19.6677Z" fill="white"/>
</svg>
