<svg width="79" height="80" viewBox="0 0 79 80" fill="none" xmlns="http://www.w3.org/2000/svg">
<path d="M70.2669 80H8.73421C4.45485 80 0.953125 76.4983 0.953125 72.2189V7.78108C0.953125 3.50173 4.45485 0 8.73421 0H70.2669C74.5463 0 78.048 3.50173 78.048 7.78108V72.2197C78.048 76.4991 74.5463 80 70.2669 80Z" fill="#052F5D"/>
<path d="M33.9684 29.1202C36.4466 31.5099 39.7072 32.7915 43.1489 32.7282L45.9664 32.6771L45.8357 25.5218L40.2008 25.6241L40.2186 26.5795C39.3598 26.2353 38.5668 25.7248 37.8809 25.0632C36.4864 23.7182 35.699 21.9122 35.6633 19.9746C35.6284 18.0378 36.3492 16.2026 37.6934 14.808C38.3549 14.1221 39.1285 13.5824 39.9743 13.2073L39.9914 14.1635L45.6263 14.0613L45.4956 6.90439L42.6781 6.95553C39.2365 7.01803 36.0245 8.41742 33.6356 10.8964C31.246 13.3746 29.9651 16.6352 30.0276 20.0777C30.0406 20.7839 30.1096 21.4811 30.2329 22.163C30.7102 24.8027 31.9984 27.2208 33.9684 29.1202Z" fill="white"/>
<path d="M29.6025 47.0331L28.1495 44.6191L22.0179 48.3099L24.9238 53.1388L25.742 52.6461C25.8735 53.5617 25.828 54.5041 25.5983 55.4286C25.1308 57.3086 23.9595 58.8939 22.3003 59.8931C19.7296 61.4402 16.5745 61.2024 14.2879 59.5408L15.1037 59.0497L12.1978 54.2208L6.06445 57.9125L7.51823 60.3265C11.1831 66.4152 19.1184 68.3868 25.2071 64.7211C31.2957 61.0563 33.2674 53.1218 29.6025 47.0331Z" fill="white"/>
<path d="M72.426 54.289C71.4747 50.9804 69.2912 48.2401 66.2789 46.5737C63.2666 44.9072 59.786 44.5135 56.4775 45.4649C53.1689 46.4162 50.4294 48.5989 48.7629 51.6111L47.3984 54.0771L53.6608 57.5415L56.389 52.6104L55.5529 52.1477C56.2802 51.5754 57.1187 51.1444 58.0351 50.8814C59.8972 50.3457 61.8559 50.5673 63.5507 51.5048C65.2464 52.4432 66.4745 53.9846 67.0102 55.8467C67.2732 56.7631 67.3536 57.7022 67.2554 58.6219L66.4185 58.1592L63.6903 63.0904L69.9535 66.5556L71.318 64.0896C72.9836 61.0782 73.3781 57.5975 72.426 54.289Z" fill="white"/>
<path d="M18.2929 59.5156C19.4212 59.5692 20.5641 59.294 21.5747 58.6844C22.3157 58.238 22.9367 57.6478 23.4043 56.9506C21.3596 54.3036 19.9033 51.1436 19.2678 47.6297C17.6119 38.4703 22.0252 29.5942 29.6293 25.1485C29.2802 24.271 29.0173 23.3562 28.8468 22.4122C28.7096 21.6549 28.6341 20.8772 28.6195 20.1021C28.6155 19.8334 28.6171 19.5655 28.6276 19.2985C17.9236 24.4934 11.5037 36.3615 13.7221 48.6313C14.4543 52.6826 16.0534 56.3629 18.2929 59.5156Z" fill="white"/>
<path d="M37.991 16.6913C37.3716 17.654 37.0502 18.7798 37.0713 19.9503C37.077 20.2685 37.1094 20.5875 37.1654 20.8984C37.2604 21.4236 37.426 21.9276 37.6557 22.4001C49.0027 20.8814 59.684 28.5723 61.7417 39.9525C61.969 41.2091 62.0818 42.4599 62.0875 43.6945C63.7766 43.9389 65.4244 44.4916 66.9626 45.3415C67.198 45.4722 67.4285 45.6078 67.655 45.7506C67.8157 43.5249 67.7021 41.2448 67.2873 38.9501C64.758 24.9586 51.894 15.3885 37.991 16.6913Z" fill="white"/>
<path d="M62.8674 52.7378C62.11 52.3189 61.2862 52.077 60.4485 52.0194C57.7284 58.5805 51.8354 63.6732 44.3433 65.0279C39.1483 65.9671 34.0434 64.9524 29.7876 62.5108C28.7373 63.855 27.441 65.0198 25.9336 65.9281C25.7063 66.0653 25.4774 66.1935 25.2461 66.3161C30.9321 70.1677 38.0687 71.8901 45.3449 70.5744C54.4166 68.9347 61.6295 62.9499 65.2254 55.1534C64.7002 54.1404 63.8893 53.3027 62.8674 52.7378Z" fill="white"/>
<path d="M41.6305 37.6351C40.9356 37.3266 40.1669 37.1553 39.3577 37.1553C38.7018 37.1553 38.0727 37.2682 37.4883 37.4751L40.3585 40.3454L41.6305 41.6173V37.6351Z" fill="white"/>
<path d="M34.2317 40.4882C33.9232 41.183 33.752 41.9517 33.752 42.761C33.752 43.4169 33.8648 44.046 34.0718 44.6304L36.942 41.7602L38.2139 40.4882H34.2317Z" fill="white"/>
<path d="M37.3392 37.5296C36.0015 38.0458 34.9113 39.0597 34.2969 40.3454H40.155L37.3392 37.5296Z" fill="white"/>
<path d="M34.127 44.7782C34.6432 46.1159 35.657 47.206 36.9428 47.8205V41.9623L34.127 44.7782Z" fill="white"/>
<path d="M38.3559 45.1767L37.084 43.9047V47.887C37.7788 48.1954 38.5475 48.3667 39.3568 48.3667C40.0126 48.3667 40.6417 48.2539 41.2262 48.0469L38.3559 45.1767Z" fill="white"/>
<path d="M38.5586 45.1767L41.3744 47.9925C42.7121 47.4763 43.8023 46.4625 44.4167 45.1767H38.5586Z" fill="white"/>
<path d="M44.4823 45.0339C44.7907 44.339 44.962 43.5703 44.962 42.7611C44.962 42.1052 44.8492 41.4761 44.6422 40.8917L41.772 43.7619L40.5 45.0339H44.4823Z" fill="white"/>
<path d="M44.5893 40.744C44.073 39.4063 43.0592 38.3161 41.7734 37.7017V43.5598L44.5893 40.744Z" fill="white"/>
<path d="M44.4163 37.1919C34.2107 27.7476 30.9102 41.5784 23.6641 42.1523C31.0563 43.0857 34.3316 31.574 44.4163 37.1919Z" fill="white"/>
<path d="M34.5859 48.5737C44.7916 58.018 48.092 44.1872 55.3382 43.6133C47.9459 42.6807 44.6707 54.1924 34.5859 48.5737Z" fill="white"/>
</svg>
